<svg width="5000" height="5000" xmlns="http://www.w3.org/2000/svg">
 <!-- Created with Method Draw - http://github.com/duopixel/Method-Draw/ -->

 <g>
  <title>background</title>
  <rect x="-1" y="-1" width="5002" height="5002" id="canvas_background" fill="#fff"/>
  <g id="canvasGrid" display="none">
   <rect id="svg_2" width="100%" height="100%" x="0" y="0" stroke-width="0" fill="url(#gridpattern)"/>
  </g>
 </g>
 <g>
  <title>Layer 1</title>
  <rect fill="#fff" stroke="#000" stroke-width="1.5" x="388.61127" y="1803.8883" width="174" height="442" id="svg_5"/>
  <rect fill="#fff" stroke="#000" stroke-width="1.5" x="948.61119" y="2034.44379" width="174" height="442" id="svg_6"/>
  <rect fill="#fff" stroke="#000" stroke-width="1.5" x="113.16664" y="1705.11093" width="174" height="442" id="svg_7"/>
  <rect fill="#fff" stroke="#000" stroke-width="1.5" x="663.3889" y="1900.99971" width="174" height="442" id="svg_9"/>
  <rect fill="#fff" stroke="#000" stroke-width="1.5" x="1260.27769" y="2180.33297" width="174" height="442" id="svg_10"/>
  <rect fill="#fff" stroke="#000" stroke-width="1.5" x="330.83352" y="2783.888" width="174" height="442" id="svg_17"/>
  <rect fill="#fff" stroke="#000" stroke-width="1.5" x="890.83343" y="3014.44348" width="174" height="442" id="svg_18"/>
  <rect fill="#fff" stroke="#000" stroke-width="1.5" x="55.38888" y="2685.11063" width="174" height="442" id="svg_19"/>
  <rect fill="#fff" stroke="#000" stroke-width="1.5" x="605.61114" y="2880.9994" width="174" height="442" id="svg_20"/>
  <rect fill="#fff" stroke="#000" stroke-width="1.5" x="1202.49993" y="3160.33267" width="174" height="442" id="svg_21"/>
  <rect fill="#fff" stroke="#000" stroke-width="1.5" x="313.05575" y="4134.99869" width="174" height="442" id="svg_22"/>
  <rect fill="#fff" stroke="#000" stroke-width="1.5" x="873.05566" y="4365.55417" width="174" height="442" id="svg_23"/>
  <rect fill="#fff" stroke="#000" stroke-width="1.5" x="37.61111" y="4036.22132" width="174" height="442" id="svg_24"/>
  <rect fill="#fff" stroke="#000" stroke-width="1.5" x="587.83338" y="4232.1101" width="174" height="442" id="svg_25"/>
  <rect fill="#fff" stroke="#000" stroke-width="1.5" x="1184.72216" y="4511.44336" width="174" height="442" id="svg_26"/>
  <rect fill="#fff" stroke="#000" stroke-width="1.5" x="353.05573" y="683.88867" width="174" height="442" id="svg_27"/>
  <rect fill="#fff" stroke="#000" stroke-width="1.5" x="913.05564" y="914.44415" width="174" height="442" id="svg_28"/>
  <rect fill="#fff" stroke="#000" stroke-width="1.5" x="77.6111" y="585.1113" width="174" height="442" id="svg_29"/>
  <rect fill="#fff" stroke="#000" stroke-width="1.5" x="627.83336" y="781.00008" width="174" height="442" id="svg_30"/>
  <rect fill="#fff" stroke="#000" stroke-width="1.5" x="1224.72214" y="1060.33334" width="174" height="442" id="svg_31"/>
  <rect id="svg_32" height="174" width="602" y="255.55547" x="2077.77786" fill-opacity="null" stroke-opacity="null" stroke-width="1.5" stroke="#000" fill="#fff"/>
  <rect id="svg_33" height="174" width="602" y="508.88872" x="2084.44452" fill-opacity="null" stroke-opacity="null" stroke-width="1.5" stroke="#000" fill="#fff"/>
  <rect id="svg_34" height="174" width="602" y="755.55532" x="2082.2223" fill-opacity="null" stroke-opacity="null" stroke-width="1.5" stroke="#000" fill="#fff"/>
  <rect id="svg_35" height="174" width="602" y="993.333" x="2091.11119" fill-opacity="null" stroke-opacity="null" stroke-width="1.5" stroke="#000" fill="#fff"/>
  <rect id="svg_36" height="174" width="602" y="1246.66625" x="2097.77785" fill-opacity="null" stroke-opacity="null" stroke-width="1.5" stroke="#000" fill="#fff"/>
  <rect id="svg_37" height="174" width="602" y="1493.33285" x="2095.55563" fill-opacity="null" stroke-opacity="null" stroke-width="1.5" stroke="#000" fill="#fff"/>
  <rect id="svg_38" height="174" width="602" y="2139.99928" x="2082.22229" fill-opacity="null" stroke-opacity="null" stroke-width="1.5" stroke="#000" fill="#fff"/>
  <rect id="svg_39" height="174" width="602" y="2393.33253" x="2088.88896" fill-opacity="null" stroke-opacity="null" stroke-width="1.5" stroke="#000" fill="#fff"/>
  <rect id="svg_40" height="174" width="602" y="2639.99913" x="2086.66673" fill-opacity="null" stroke-opacity="null" stroke-width="1.5" stroke="#000" fill="#fff"/>
  <rect id="svg_41" height="174" width="602" y="3291.1101" x="2080.00009" fill-opacity="null" stroke-opacity="null" stroke-width="1.5" stroke="#000" fill="#fff"/>
  <rect id="svg_42" height="174" width="602" y="3544.44335" x="2086.66675" fill-opacity="null" stroke-opacity="null" stroke-width="1.5" stroke="#000" fill="#fff"/>
  <rect id="svg_43" height="174" width="602" y="3791.10995" x="2084.44453" fill-opacity="null" stroke-opacity="null" stroke-width="1.5" stroke="#000" fill="#fff"/>
  <rect id="svg_44" height="174" width="602" y="4284.44303" x="2088.88905" fill-opacity="null" stroke-opacity="null" stroke-width="1.5" stroke="#000" fill="#fff"/>
  <rect id="svg_45" height="174" width="602" y="4537.77628" x="2095.55571" fill-opacity="null" stroke-opacity="null" stroke-width="1.5" stroke="#000" fill="#fff"/>
  <rect id="svg_46" height="174" width="602" y="4784.44288" x="2093.33349" fill-opacity="null" stroke-opacity="null" stroke-width="1.5" stroke="#000" fill="#fff"/>
  <rect fill="#fff" stroke="#000" stroke-width="1.5" x="3844.16561" y="4099.44314" width="174" height="442" id="svg_47"/>
  <rect fill="#fff" stroke="#000" stroke-width="1.5" x="4404.16553" y="4329.99863" width="174" height="442" id="svg_48"/>
  <rect fill="#fff" stroke="#000" stroke-width="1.5" x="3568.72098" y="4000.66577" width="174" height="442" id="svg_49"/>
  <rect fill="#fff" stroke="#000" stroke-width="1.5" x="4118.94324" y="4196.55455" width="174" height="442" id="svg_50"/>
  <rect fill="#fff" stroke="#000" stroke-width="1.5" x="4715.83203" y="4475.88781" width="174" height="442" id="svg_51"/>
  <rect fill="#fff" stroke="#000" stroke-width="1.5" x="3904.16561" y="2714.99918" width="174" height="442" id="svg_52"/>
  <rect fill="#fff" stroke="#000" stroke-width="1.5" x="4464.16553" y="2945.55466" width="174" height="442" id="svg_53"/>
  <rect fill="#fff" stroke="#000" stroke-width="1.5" x="3628.72098" y="2616.22181" width="174" height="442" id="svg_54"/>
  <rect fill="#fff" stroke="#000" stroke-width="1.5" x="4178.94324" y="2812.11058" width="174" height="442" id="svg_55"/>
  <rect fill="#fff" stroke="#000" stroke-width="1.5" x="4775.83203" y="3091.44385" width="174" height="442" id="svg_56"/>
  <rect fill="#fff" stroke="#000" stroke-width="1.5" x="3897.49895" y="1303.88852" width="174" height="442" id="svg_57"/>
  <rect fill="#fff" stroke="#000" stroke-width="1.5" x="4457.49887" y="1534.444" width="174" height="442" id="svg_58"/>
  <rect fill="#fff" stroke="#000" stroke-width="1.5" x="3622.05432" y="1205.11115" width="174" height="442" id="svg_59"/>
  <rect fill="#fff" stroke="#000" stroke-width="1.5" x="4172.27658" y="1400.99993" width="174" height="442" id="svg_60"/>
  <rect fill="#fff" stroke="#000" stroke-width="1.5" x="4769.16536" y="1680.33319" width="174" height="442" id="svg_61"/>
  <rect fill="#fff" stroke="#000" stroke-width="1.5" x="3913.0545" y="195.00003" width="174" height="442" id="svg_62"/>
  <rect fill="#fff" stroke="#000" stroke-width="1.5" x="4473.05441" y="425.55552" width="174" height="442" id="svg_63"/>
  <rect fill="#fff" stroke="#000" stroke-width="1.5" x="3637.60987" y="96.22266" width="174" height="442" id="svg_64"/>
  <rect fill="#fff" stroke="#000" stroke-width="1.5" x="4187.83213" y="292.11144" width="174" height="442" id="svg_65"/>
  <rect fill="#fff" stroke="#000" stroke-width="1.5" x="4784.72091" y="571.4447" width="174" height="442" id="svg_66"/>
 </g>
</svg>